#!OML:ASF F:\VICON\USERDATA\INSTALL\rory3\rory3.ASF
:FULLY-SPECIFIED
:DEGREES
2716
root 0.321668 17.8994 -2.38312 5.98982 -44.0076 19.5448
lowerback 19.1538 1.80879 3.10931
upperback 7.42286 2.95398 8.5821
thorax -2.99357 1.26245 6.83999
lowerneck -6.65282 -14.4494 -10.4279
upperneck 23.0487 -21.4482 10.9461
head 10.8592 -9.65909 2.77392
rclavicle 3.18055e-014 0
rhumerus 5.37183 -7.02239 -94.9366
rradius 40.9827
rwrist -48.7131
rhand -43.1195 -30.1936
rfingers 7.12502
rthumb -15.9734 -59.555
lclavicle 3.18055e-014 0
lhumerus -15.3476 -33.7471 96.1979
lradius 54.3821
lwrist 2.83029
lhand -14.4443 42.507
lfingers 7.12502
lthumb 11.7007 -1367.84
rfemur -43.571 -8.3983 12.5404
rtibia 40.3117
rfoot -18.8115 -11.8647
rtoes 16.0539
lfemur -26.8426 -5.27874 -19.2598
ltibia 23.3287
lfoot -7.25612 3.93146
ltoes -17.2956
2717
root 0.338729 17.903 -2.40257 6.14133 -44.2241 19.4503
lowerback 19.0986 1.72623 3.02316
upperback 7.39673 2.82792 8.49377
thorax -2.98082 1.20123 6.81988
lowerneck -7.03537 -14.3157 -10.0251
upperneck 23.1603 -21.2542 10.7363
head 10.8729 -9.54244 2.65205
rclavicle 1.90833e-014 -2.8625e-014
rhumerus 6.32903 -8.26525 -94.0401
rradius 40.9915
rwrist -48.8675
rhand -43.1532 -29.8442
rfingers 7.12502
rthumb -16.0059 -59.2029
lclavicle 1.90833e-014 -2.8625e-014
lhumerus -14.0906 -35.2615 96.6361
lradius 54.3056
lwrist 3.24789
lhand -14.7383 42.7693
lfingers 7.12502
lthumb 11.4172 -1367.56
rfemur -43.7768 -8.39522 12.7337
rtibia 40.2176
rfoot -18.6602 -11.7422
rtoes 16.4505
lfemur -26.6738 -5.22553 -19.5504
ltibia 23.8781
lfoot -7.63822 4.04066
ltoes -16.5705
2718
root 0.360101 17.9064 -2.42194 6.30652 -44.3345 19.3901
lowerback 18.9739 1.58126 2.97403
upperback 7.37585 2.62232 8.41841
thorax -2.91696 1.10103 6.81062
lowerneck -7.50851 -14.1888 -9.66136
upperneck 23.2939 -21.0469 10.4623
head 10.9084 -9.42416 2.50831
rclavicle -1.04958e-013 -1.90833e-014
rhumerus 7.48578 -9.7299 -93.3023
rradius 40.8625
rwrist -49.0163
rhand -43.1603 -29.5299
rfingers 7.12502
rthumb -16.0127 -58.8881
lclavicle -1.04958e-013 -1.90833e-014
lhumerus -12.5933 -36.6771 96.8992
lradius 54.3083
lwrist 4.6795
lhand -14.5009 42.5105
lfingers 7.12502
lthumb 11.6461 -1367.83
rfemur -43.994 -8.42355 12.842
rtibia 40.1295
rfoot -18.6608 -11.5065
rtoes 17.6153
lfemur -26.5843 -5.25206 -19.8944
ltibia 24.4592
lfoot -7.97763 3.99903
ltoes -15.5869
2719
root 0.382412 17.9066 -2.43964 6.41766 -44.3606 19.2984
lowerback 18.9359 1.3005 2.83382
upperback 7.30917 2.23945 8.42494
thorax -2.93611 0.911951 6.98403
lowerneck -7.62044 -13.9873 -9.77378
upperneck 23.4727 -20.7305 10.3131
head 10.953 -9.29925 2.51616
rclavicle -2.54444e-014 -6.67916e-014
rhumerus 8.75591 -11.3745 -92.8797
rradius 40.4648
rwrist -48.4245
rhand -43.0486 -29.3434
rfingers 7.12502
rthumb -15.9052 -58.7102
lclavicle -2.54444e-014 -6.67916e-014
lhumerus -11.144 -37.5433 97.2087
lradius 54.2508
lwrist 6.17055
lhand -14.614 42.8501
lfingers 7.12502
lthumb 11.537 -1367.49
rfemur -44.131 -8.60831 13.0152
rtibia 40.0505
rfoot -18.5407 -11.244
rtoes 18.5486
lfemur -26.42 -5.19804 -20.3021
ltibia 25.0748
lfoot -8.35218 3.74727
ltoes -16.4169
2720
root 0.402484 17.9068 -2.45438 6.37277 -44.4586 19.2723
lowerback 18.8202 0.910485 3.05519
upperback 7.30777 1.74967 7.99061
thorax -2.808 0.679988 6.47887
lowerneck -7.37524 -13.6696 -9.57599
upperneck 23.5093 -20.3935 10.5243
head 10.8835 -9.12978 2.63702
rclavicle 2.8625e-014 9.54166e-015
rhumerus 9.99384 -13.3652 -93.1686
rradius 40.1895
rwrist -47.6963
rhand -42.7183 -29.1707
rfingers 7.12502
rthumb -15.5871 -58.5626
lclavicle 2.8625e-014 9.54166e-015
lhumerus -9.53097 -39.2903 96.6181
lradius 54.1662
lwrist 7.72419
lhand -15.1718 43.4504
lfingers 7.12502
lthumb 10.9991 -1366.86
rfemur -44.187 -8.92027 13.2257
rtibia 39.9709
rfoot -18.2454 -10.9508
rtoes 18.6961
lfemur -26.0951 -4.88918 -20.9029
ltibia 25.7198
lfoot -8.74553 3.47444
ltoes -18.8848
2721
root 0.422537 17.9075 -2.47455 6.4993 -44.615 19.1545
lowerback 18.8211 0.804388 2.79781
upperback 7.16177 1.58655 7.99883
thorax -2.9584 0.600559 6.67309
lowerneck -7.0683 -13.4373 -9.77814
upperneck 23.4496 -20.0804 10.6368
head 10.8019 -9.01678 2.77903
rclavicle 3.18055e-014 -9.54166e-015
rhumerus 10.9304 -15.1644 -92.4657
rradius 40.068
rwrist -47.4458
rhand -42.1679 -28.8513
rfingers 7.12502
rthumb -15.0569 -58.2838
lclavicle 3.18055e-014 -9.54166e-015
lhumerus -7.95949 -41.4661 96.6482
lradius 54.0937
lwrist 9.17248
lhand -15.1315 42.6078
lfingers 7.12502
lthumb 11.0379 -1367.7
rfemur -44.3671 -8.98724 13.4562
rtibia 39.8921
rfoot -18.0112 -10.9204
rtoes 18.3068
lfemur -25.9271 -4.63763 -21.3489
ltibia 26.3743
lfoot -9.17299 3.12305
ltoes -20.8167
2722
root 0.444565 17.9093 -2.49524 6.71784 -44.646 18.9037
lowerback 18.8043 0.597094 2.67389
upperback 7.10569 1.30229 8.03143
thorax -2.9853 0.459603 6.84347
lowerneck -7.06661 -13.2084 -9.99056
upperneck 23.3944 -19.7599 10.7909
head 10.7846 -8.88255 2.91494
rclavicle -5.725e-014 -5.08889e-014
rhumerus 12.1823 -16.9272 -91.9245
rradius 39.8845
rwrist -47.2153
rhand -41.6421 -28.6429
rfingers 7.12502
rthumb -14.5503 -58.1126
lclavicle -5.725e-014 -5.08889e-014
lhumerus -6.01369 -43.0746 96.3806
lradius 53.9592
lwrist 9.60171
lhand -14.6892 41.1437
lfingers 7.12502
lthumb 11.4645 -1369.19
rfemur -44.4815 -8.94975 13.6912
rtibia 39.8087
rfoot -17.8703 -11.0174
rtoes 18.1697
lfemur -25.8284 -4.58051 -21.6096
ltibia 27.0514
lfoot -9.70544 2.53605
ltoes -21.023
2723
root 0.469828 17.9128 -2.51173 6.80137 -44.5686 18.7814
lowerback 18.784 0.281524 2.5725
upperback 7.11383 0.871161 7.96783
thorax -2.92238 0.246248 6.92481
lowerneck -7.3354 -12.9894 -9.92511
upperneck 23.482 -19.4685 10.8311
head 10.8301 -8.73255 2.94836
rclavicle -9.22361e-014 1.59028e-014
rhumerus 13.6223 -18.5935 -91.6595
rradius 39.7007
rwrist -47.1837
rhand -40.7598 -28.851
rfingers 7.12502
rthumb -13.7001 -58.38
lclavicle -9.22361e-014 1.59028e-014
lhumerus -3.6881 -44.2409 95.7851
lradius 53.564
lwrist 9.41739
lhand -13.8152 39.795
lfingers 7.12502
lthumb 12.3073 -1370.59
rfemur -44.5116 -8.93405 13.7307
rtibia 39.7396
rfoot -17.8262 -11.0662
rtoes 18.7871
lfemur -25.7029 -4.60476 -22.0263
ltibia 27.7773
lfoot -10.3058 2.00626
ltoes -21.3687
2724
root 0.498498 17.9145 -2.53124 6.95489 -44.4326 18.7031
lowerback 18.6917 -0.0542168 2.44788
upperback 7.0476 0.415058 7.91928
thorax -2.89877 0.0225709 7.04011
lowerneck -7.42496 -12.8324 -9.91265
upperneck 23.4843 -19.2629 10.8931
head 10.8287 -8.63397 2.9957
rclavicle 6.67916e-014 -4.77083e-014
rhumerus 15.028 -20.1481 -91.4181
rradius 39.4647
rwrist -47.2505
rhand -39.7782 -29.2799
rfingers 7.12502
rthumb -12.754 -58.8704
lclavicle 6.67916e-014 -4.77083e-014
lhumerus -1.26777 -45.274 95.0579
lradius 53.1422
lwrist 8.83255
lhand -12.2751 38.5104
lfingers 7.12502
lthumb 13.7919 -1371.97
rfemur -44.6651 -8.93985 13.7438
rtibia 39.6633
rfoot -17.7963 -11.1813
rtoes 19.3554
lfemur -25.751 -4.61884 -22.4801
ltibia 28.5883
lfoot -10.8626 1.27709
ltoes -21.2914
